<mxfile host="app.diagrams.net" agent="Mozilla/5.0 (Windows NT 10.0; Win64; x64) AppleWebKit/537.36 (KHTML, like Gecko) Chrome/130.0.0.0 Safari/537.36" version="24.7.17">
  <diagram name="Page-1" id="03018318-947c-dd8e-b7a3-06fadd420f32">
    <mxGraphModel dx="913" dy="461" grid="1" gridSize="10" guides="1" tooltips="1" connect="1" arrows="1" fold="1" page="1" pageScale="1" pageWidth="1100" pageHeight="850" background="#ffffff" math="0" shadow="0">
      <root>
        <mxCell id="0" />
        <mxCell id="1" parent="0" />
        <mxCell id="YNnPDIzdrcRX6Q2PE1MY-2" value="" style="rounded=0;whiteSpace=wrap;html=1;rotation=90;" vertex="1" parent="1">
          <mxGeometry y="80" width="320" height="240" as="geometry" />
        </mxCell>
        <mxCell id="YNnPDIzdrcRX6Q2PE1MY-3" value="INICIO" style="rounded=0;whiteSpace=wrap;html=1;" vertex="1" parent="1">
          <mxGeometry x="40" y="40" width="240" height="40" as="geometry" />
        </mxCell>
        <mxCell id="YNnPDIzdrcRX6Q2PE1MY-7" value="Pecho" style="strokeWidth=1;shadow=0;dashed=0;align=center;html=1;shape=mxgraph.mockup.forms.comboBox;strokeColor=#999999;fillColor=#ddeeff;align=left;fillColor2=#aaddff;mainText=;fontColor=#666666;fontSize=11;spacingLeft=3;fontStyle=0" vertex="1" parent="1">
          <mxGeometry x="74" y="160" width="120" height="20" as="geometry" />
        </mxCell>
        <mxCell id="YNnPDIzdrcRX6Q2PE1MY-9" value="Salir" style="labelPosition=center;verticalLabelPosition=middle;align=center;html=1;shape=mxgraph.basic.button;dx=4.88;whiteSpace=wrap;fontSize=10;" vertex="1" parent="1">
          <mxGeometry x="230" y="50" width="40" height="20" as="geometry" />
        </mxCell>
        <mxCell id="YNnPDIzdrcRX6Q2PE1MY-10" value="" style="sketch=0;outlineConnect=0;fontColor=#232F3E;gradientColor=none;fillColor=#ED7100;strokeColor=none;dashed=0;verticalLabelPosition=bottom;verticalAlign=top;align=center;html=1;fontSize=12;fontStyle=0;aspect=fixed;pointerEvents=1;shape=mxgraph.aws4.container_registry_image;" vertex="1" parent="1">
          <mxGeometry x="50" y="48" width="24" height="24" as="geometry" />
        </mxCell>
        <mxCell id="YNnPDIzdrcRX6Q2PE1MY-11" value="AÃ‘ADIR" style="labelPosition=center;verticalLabelPosition=middle;align=center;html=1;shape=mxgraph.basic.button;dx=8.53;whiteSpace=wrap;fontSize=10;" vertex="1" parent="1">
          <mxGeometry x="105" y="100" width="110" height="40" as="geometry" />
        </mxCell>
        <mxCell id="YNnPDIzdrcRX6Q2PE1MY-13" value="Ver" style="labelPosition=center;verticalLabelPosition=middle;align=center;html=1;shape=mxgraph.basic.button;dx=4.88;whiteSpace=wrap;fontSize=10;" vertex="1" parent="1">
          <mxGeometry x="200" y="160" width="40" height="20" as="geometry" />
        </mxCell>
        <mxCell id="YNnPDIzdrcRX6Q2PE1MY-20" value="Ejercicio1" style="text;strokeColor=#DFDFDF;fillColor=#FFFFFF;align=center;verticalAlign=middle;spacingLeft=10;spacingRight=10;overflow=hidden;points=[[0,0.5],[1,0.5]];portConstraint=eastwest;rotatable=0;whiteSpace=wrap;html=1;shape=mxgraph.bootstrap.topButton;rSize=5;fontColor=#333333;" vertex="1" parent="1">
          <mxGeometry x="100" y="210" width="120" height="30" as="geometry" />
        </mxCell>
        <mxCell id="YNnPDIzdrcRX6Q2PE1MY-21" value="Ejercicio2" style="text;strokeColor=#DFDFDF;fillColor=#FFFFFF;align=center;verticalAlign=middle;spacingLeft=10;spacingRight=10;overflow=hidden;points=[[0,0.5],[1,0.5]];portConstraint=eastwest;rotatable=0;whiteSpace=wrap;html=1;rSize=5;fontColor=#333333;" vertex="1" parent="1">
          <mxGeometry x="100" y="270" width="120" height="30" as="geometry" />
        </mxCell>
        <mxCell id="YNnPDIzdrcRX6Q2PE1MY-22" value="Ejercicio3" style="text;strokeColor=#DFDFDF;fillColor=#FFFFFF;align=center;verticalAlign=middle;spacingLeft=10;spacingRight=10;overflow=hidden;points=[[0,0.5],[1,0.5]];portConstraint=eastwest;rotatable=0;whiteSpace=wrap;html=1;shape=mxgraph.bootstrap.bottomButton;rSize=5;fontColor=#333333;" vertex="1" parent="1">
          <mxGeometry x="100" y="240" width="120" height="30" as="geometry" />
        </mxCell>
        <mxCell id="YNnPDIzdrcRX6Q2PE1MY-34" value="" style="rounded=0;whiteSpace=wrap;html=1;rotation=90;" vertex="1" parent="1">
          <mxGeometry x="320" y="80" width="320" height="240" as="geometry" />
        </mxCell>
        <mxCell id="YNnPDIzdrcRX6Q2PE1MY-35" value="GRUPO" style="rounded=0;whiteSpace=wrap;html=1;" vertex="1" parent="1">
          <mxGeometry x="360" y="40" width="240" height="40" as="geometry" />
        </mxCell>
        <mxCell id="YNnPDIzdrcRX6Q2PE1MY-36" value="Pecho" style="strokeWidth=1;shadow=0;dashed=0;align=center;html=1;shape=mxgraph.mockup.forms.comboBox;strokeColor=#999999;fillColor=#ddeeff;align=left;fillColor2=#aaddff;mainText=;fontColor=#666666;fontSize=11;spacingLeft=3;fontStyle=0" vertex="1" parent="1">
          <mxGeometry x="393.5" y="120" width="173" height="20" as="geometry" />
        </mxCell>
        <mxCell id="YNnPDIzdrcRX6Q2PE1MY-37" value="Salir" style="labelPosition=center;verticalLabelPosition=middle;align=center;html=1;shape=mxgraph.basic.button;dx=4.88;whiteSpace=wrap;fontSize=10;" vertex="1" parent="1">
          <mxGeometry x="550" y="50" width="40" height="20" as="geometry" />
        </mxCell>
        <mxCell id="YNnPDIzdrcRX6Q2PE1MY-38" value="" style="sketch=0;outlineConnect=0;fontColor=#232F3E;gradientColor=none;fillColor=#ED7100;strokeColor=none;dashed=0;verticalLabelPosition=bottom;verticalAlign=top;align=center;html=1;fontSize=12;fontStyle=0;aspect=fixed;pointerEvents=1;shape=mxgraph.aws4.container_registry_image;" vertex="1" parent="1">
          <mxGeometry x="370" y="48" width="24" height="24" as="geometry" />
        </mxCell>
        <mxCell id="YNnPDIzdrcRX6Q2PE1MY-44" value="Volver" style="labelPosition=center;verticalLabelPosition=middle;align=center;html=1;shape=mxgraph.basic.button;dx=4.88;whiteSpace=wrap;fontSize=10;" vertex="1" parent="1">
          <mxGeometry x="510" y="50" width="40" height="20" as="geometry" />
        </mxCell>
        <mxCell id="YNnPDIzdrcRX6Q2PE1MY-45" value="" style="shape=table;startSize=0;container=1;collapsible=0;childLayout=tableLayout;fontSize=16;" vertex="1" parent="1">
          <mxGeometry x="390" y="194" width="180" height="110" as="geometry" />
        </mxCell>
        <mxCell id="YNnPDIzdrcRX6Q2PE1MY-46" value="" style="shape=tableRow;horizontal=0;startSize=0;swimlaneHead=0;swimlaneBody=0;strokeColor=inherit;top=0;left=0;bottom=0;right=0;collapsible=0;dropTarget=0;fillColor=none;points=[[0,0.5],[1,0.5]];portConstraint=eastwest;fontSize=16;" vertex="1" parent="YNnPDIzdrcRX6Q2PE1MY-45">
          <mxGeometry width="180" height="37" as="geometry" />
        </mxCell>
        <mxCell id="YNnPDIzdrcRX6Q2PE1MY-47" value="" style="shape=partialRectangle;html=1;whiteSpace=wrap;connectable=0;strokeColor=inherit;overflow=hidden;fillColor=none;top=0;left=0;bottom=0;right=0;pointerEvents=1;fontSize=16;" vertex="1" parent="YNnPDIzdrcRX6Q2PE1MY-46">
          <mxGeometry width="60" height="37" as="geometry">
            <mxRectangle width="60" height="37" as="alternateBounds" />
          </mxGeometry>
        </mxCell>
        <mxCell id="YNnPDIzdrcRX6Q2PE1MY-48" value="Nombre" style="shape=partialRectangle;html=1;whiteSpace=wrap;connectable=0;strokeColor=inherit;overflow=hidden;fillColor=none;top=0;left=0;bottom=0;right=0;pointerEvents=1;fontSize=12;" vertex="1" parent="YNnPDIzdrcRX6Q2PE1MY-46">
          <mxGeometry x="60" width="60" height="37" as="geometry">
            <mxRectangle width="60" height="37" as="alternateBounds" />
          </mxGeometry>
        </mxCell>
        <mxCell id="YNnPDIzdrcRX6Q2PE1MY-49" value="&lt;font style=&quot;font-size: 8px;&quot;&gt;Reps/Series&lt;/font&gt;" style="shape=partialRectangle;html=1;whiteSpace=wrap;connectable=0;strokeColor=inherit;overflow=hidden;fillColor=none;top=0;left=0;bottom=0;right=0;pointerEvents=1;fontSize=12;" vertex="1" parent="YNnPDIzdrcRX6Q2PE1MY-46">
          <mxGeometry x="120" width="60" height="37" as="geometry">
            <mxRectangle width="60" height="37" as="alternateBounds" />
          </mxGeometry>
        </mxCell>
        <mxCell id="YNnPDIzdrcRX6Q2PE1MY-50" value="" style="shape=tableRow;horizontal=0;startSize=0;swimlaneHead=0;swimlaneBody=0;strokeColor=inherit;top=0;left=0;bottom=0;right=0;collapsible=0;dropTarget=0;fillColor=none;points=[[0,0.5],[1,0.5]];portConstraint=eastwest;fontSize=16;" vertex="1" parent="YNnPDIzdrcRX6Q2PE1MY-45">
          <mxGeometry y="37" width="180" height="36" as="geometry" />
        </mxCell>
        <mxCell id="YNnPDIzdrcRX6Q2PE1MY-51" value="" style="shape=partialRectangle;html=1;whiteSpace=wrap;connectable=0;strokeColor=inherit;overflow=hidden;fillColor=none;top=0;left=0;bottom=0;right=0;pointerEvents=1;fontSize=16;" vertex="1" parent="YNnPDIzdrcRX6Q2PE1MY-50">
          <mxGeometry width="60" height="36" as="geometry">
            <mxRectangle width="60" height="36" as="alternateBounds" />
          </mxGeometry>
        </mxCell>
        <mxCell id="YNnPDIzdrcRX6Q2PE1MY-52" value="Nombre" style="shape=partialRectangle;html=1;whiteSpace=wrap;connectable=0;strokeColor=inherit;overflow=hidden;fillColor=none;top=0;left=0;bottom=0;right=0;pointerEvents=1;fontSize=12;" vertex="1" parent="YNnPDIzdrcRX6Q2PE1MY-50">
          <mxGeometry x="60" width="60" height="36" as="geometry">
            <mxRectangle width="60" height="36" as="alternateBounds" />
          </mxGeometry>
        </mxCell>
        <mxCell id="YNnPDIzdrcRX6Q2PE1MY-53" value="&lt;span style=&quot;color: rgb(0, 0, 0); font-family: Helvetica; font-size: 8px; font-style: normal; font-variant-ligatures: normal; font-variant-caps: normal; font-weight: 400; letter-spacing: normal; orphans: 2; text-align: center; text-indent: 0px; text-transform: none; widows: 2; word-spacing: 0px; -webkit-text-stroke-width: 0px; white-space: normal; background-color: rgb(251, 251, 251); text-decoration-thickness: initial; text-decoration-style: initial; text-decoration-color: initial; display: inline !important; float: none;&quot;&gt;Reps/Series&lt;/span&gt;" style="shape=partialRectangle;html=1;whiteSpace=wrap;connectable=0;strokeColor=inherit;overflow=hidden;fillColor=none;top=0;left=0;bottom=0;right=0;pointerEvents=1;fontSize=12;" vertex="1" parent="YNnPDIzdrcRX6Q2PE1MY-50">
          <mxGeometry x="120" width="60" height="36" as="geometry">
            <mxRectangle width="60" height="36" as="alternateBounds" />
          </mxGeometry>
        </mxCell>
        <mxCell id="YNnPDIzdrcRX6Q2PE1MY-54" value="" style="shape=tableRow;horizontal=0;startSize=0;swimlaneHead=0;swimlaneBody=0;strokeColor=inherit;top=0;left=0;bottom=0;right=0;collapsible=0;dropTarget=0;fillColor=none;points=[[0,0.5],[1,0.5]];portConstraint=eastwest;fontSize=16;" vertex="1" parent="YNnPDIzdrcRX6Q2PE1MY-45">
          <mxGeometry y="73" width="180" height="37" as="geometry" />
        </mxCell>
        <mxCell id="YNnPDIzdrcRX6Q2PE1MY-55" value="" style="shape=partialRectangle;html=1;whiteSpace=wrap;connectable=0;strokeColor=inherit;overflow=hidden;fillColor=none;top=0;left=0;bottom=0;right=0;pointerEvents=1;fontSize=16;" vertex="1" parent="YNnPDIzdrcRX6Q2PE1MY-54">
          <mxGeometry width="60" height="37" as="geometry">
            <mxRectangle width="60" height="37" as="alternateBounds" />
          </mxGeometry>
        </mxCell>
        <mxCell id="YNnPDIzdrcRX6Q2PE1MY-56" value="Nombre" style="shape=partialRectangle;html=1;whiteSpace=wrap;connectable=0;strokeColor=inherit;overflow=hidden;fillColor=none;top=0;left=0;bottom=0;right=0;pointerEvents=1;fontSize=12;" vertex="1" parent="YNnPDIzdrcRX6Q2PE1MY-54">
          <mxGeometry x="60" width="60" height="37" as="geometry">
            <mxRectangle width="60" height="37" as="alternateBounds" />
          </mxGeometry>
        </mxCell>
        <mxCell id="YNnPDIzdrcRX6Q2PE1MY-57" value="&lt;span style=&quot;color: rgb(0, 0, 0); font-family: Helvetica; font-size: 8px; font-style: normal; font-variant-ligatures: normal; font-variant-caps: normal; font-weight: 400; letter-spacing: normal; orphans: 2; text-align: center; text-indent: 0px; text-transform: none; widows: 2; word-spacing: 0px; -webkit-text-stroke-width: 0px; white-space: normal; background-color: rgb(251, 251, 251); text-decoration-thickness: initial; text-decoration-style: initial; text-decoration-color: initial; display: inline !important; float: none;&quot;&gt;Reps/Series&lt;/span&gt;" style="shape=partialRectangle;html=1;whiteSpace=wrap;connectable=0;strokeColor=inherit;overflow=hidden;fillColor=none;top=0;left=0;bottom=0;right=0;pointerEvents=1;fontSize=12;" vertex="1" parent="YNnPDIzdrcRX6Q2PE1MY-54">
          <mxGeometry x="120" width="60" height="37" as="geometry">
            <mxRectangle width="60" height="37" as="alternateBounds" />
          </mxGeometry>
        </mxCell>
        <mxCell id="YNnPDIzdrcRX6Q2PE1MY-58" value="" style="sketch=0;outlineConnect=0;fontColor=#232F3E;gradientColor=none;fillColor=#ED7100;strokeColor=none;dashed=0;verticalLabelPosition=bottom;verticalAlign=top;align=center;html=1;fontSize=12;fontStyle=0;aspect=fixed;pointerEvents=1;shape=mxgraph.aws4.container_registry_image;" vertex="1" parent="1">
          <mxGeometry x="410" y="202" width="22" height="22" as="geometry" />
        </mxCell>
        <mxCell id="YNnPDIzdrcRX6Q2PE1MY-59" value="" style="sketch=0;outlineConnect=0;fontColor=#232F3E;gradientColor=none;fillColor=#ED7100;strokeColor=none;dashed=0;verticalLabelPosition=bottom;verticalAlign=top;align=center;html=1;fontSize=12;fontStyle=0;aspect=fixed;pointerEvents=1;shape=mxgraph.aws4.container_registry_image;" vertex="1" parent="1">
          <mxGeometry x="410" y="274" width="22" height="22" as="geometry" />
        </mxCell>
        <mxCell id="YNnPDIzdrcRX6Q2PE1MY-60" value="" style="sketch=0;outlineConnect=0;fontColor=#232F3E;gradientColor=none;fillColor=#ED7100;strokeColor=none;dashed=0;verticalLabelPosition=bottom;verticalAlign=top;align=center;html=1;fontSize=12;fontStyle=0;aspect=fixed;pointerEvents=1;shape=mxgraph.aws4.container_registry_image;" vertex="1" parent="1">
          <mxGeometry x="410" y="238" width="22" height="22" as="geometry" />
        </mxCell>
        <mxCell id="YNnPDIzdrcRX6Q2PE1MY-63" value="" style="rounded=0;whiteSpace=wrap;html=1;rotation=90;" vertex="1" parent="1">
          <mxGeometry x="600" y="80" width="320" height="240" as="geometry" />
        </mxCell>
        <mxCell id="YNnPDIzdrcRX6Q2PE1MY-64" value="Ver Ejer" style="rounded=0;whiteSpace=wrap;html=1;" vertex="1" parent="1">
          <mxGeometry x="640" y="40" width="240" height="40" as="geometry" />
        </mxCell>
        <mxCell id="YNnPDIzdrcRX6Q2PE1MY-66" value="Salir" style="labelPosition=center;verticalLabelPosition=middle;align=center;html=1;shape=mxgraph.basic.button;dx=4.88;whiteSpace=wrap;fontSize=10;" vertex="1" parent="1">
          <mxGeometry x="830" y="50" width="40" height="20" as="geometry" />
        </mxCell>
        <mxCell id="YNnPDIzdrcRX6Q2PE1MY-67" value="" style="sketch=0;outlineConnect=0;fontColor=#232F3E;gradientColor=none;fillColor=#ED7100;strokeColor=none;dashed=0;verticalLabelPosition=bottom;verticalAlign=top;align=center;html=1;fontSize=12;fontStyle=0;aspect=fixed;pointerEvents=1;shape=mxgraph.aws4.container_registry_image;" vertex="1" parent="1">
          <mxGeometry x="650" y="48" width="24" height="24" as="geometry" />
        </mxCell>
        <mxCell id="YNnPDIzdrcRX6Q2PE1MY-68" value="Volver" style="labelPosition=center;verticalLabelPosition=middle;align=center;html=1;shape=mxgraph.basic.button;dx=4.88;whiteSpace=wrap;fontSize=10;" vertex="1" parent="1">
          <mxGeometry x="790" y="50" width="40" height="20" as="geometry" />
        </mxCell>
        <mxCell id="YNnPDIzdrcRX6Q2PE1MY-86" value="Nombre" style="text;html=1;align=center;verticalAlign=middle;whiteSpace=wrap;rounded=0;" vertex="1" parent="1">
          <mxGeometry x="695" y="110" width="130" height="30" as="geometry" />
        </mxCell>
        <mxCell id="YNnPDIzdrcRX6Q2PE1MY-87" value="DescripciÃ³n" style="text;html=1;align=center;verticalAlign=middle;whiteSpace=wrap;rounded=0;" vertex="1" parent="1">
          <mxGeometry x="695" y="140" width="130" height="50" as="geometry" />
        </mxCell>
        <mxCell id="YNnPDIzdrcRX6Q2PE1MY-88" value="" style="html=1;verticalLabelPosition=bottom;align=center;labelBackgroundColor=#ffffff;verticalAlign=top;strokeWidth=2;strokeColor=#0080F0;shadow=0;dashed=0;shape=mxgraph.ios7.icons.video_conversation;" vertex="1" parent="1">
          <mxGeometry x="676" y="313" width="30" height="15" as="geometry" />
        </mxCell>
        <mxCell id="YNnPDIzdrcRX6Q2PE1MY-89" value="" style="sketch=0;outlineConnect=0;fontColor=#232F3E;gradientColor=none;fillColor=#ED7100;strokeColor=none;dashed=0;verticalLabelPosition=bottom;verticalAlign=top;align=center;html=1;fontSize=12;fontStyle=0;aspect=fixed;pointerEvents=1;shape=mxgraph.aws4.container_registry_image;" vertex="1" parent="1">
          <mxGeometry x="750" y="307" width="24" height="24" as="geometry" />
        </mxCell>
        <mxCell id="YNnPDIzdrcRX6Q2PE1MY-90" value="" style="sketch=0;pointerEvents=1;shadow=0;dashed=0;html=1;strokeColor=none;fillColor=#505050;labelPosition=center;verticalLabelPosition=bottom;verticalAlign=top;outlineConnect=0;align=center;shape=mxgraph.office.concepts.sound_file;" vertex="1" parent="1">
          <mxGeometry x="822" y="296" width="40" height="50" as="geometry" />
        </mxCell>
        <mxCell id="YNnPDIzdrcRX6Q2PE1MY-91" value="Repeticiones" style="text;html=1;align=center;verticalAlign=middle;whiteSpace=wrap;rounded=0;" vertex="1" parent="1">
          <mxGeometry x="695" y="190" width="130" height="30" as="geometry" />
        </mxCell>
        <mxCell id="YNnPDIzdrcRX6Q2PE1MY-92" value="Series" style="text;html=1;align=center;verticalAlign=middle;whiteSpace=wrap;rounded=0;" vertex="1" parent="1">
          <mxGeometry x="695" y="230" width="130" height="30" as="geometry" />
        </mxCell>
        <mxCell id="YNnPDIzdrcRX6Q2PE1MY-93" value="" style="rounded=0;whiteSpace=wrap;html=1;rotation=90;" vertex="1" parent="1">
          <mxGeometry x="880" y="80" width="320" height="240" as="geometry" />
        </mxCell>
        <mxCell id="YNnPDIzdrcRX6Q2PE1MY-94" value="Crear Ejer" style="rounded=0;whiteSpace=wrap;html=1;" vertex="1" parent="1">
          <mxGeometry x="920" y="40" width="240" height="40" as="geometry" />
        </mxCell>
        <mxCell id="YNnPDIzdrcRX6Q2PE1MY-95" value="Salir" style="labelPosition=center;verticalLabelPosition=middle;align=center;html=1;shape=mxgraph.basic.button;dx=4.88;whiteSpace=wrap;fontSize=10;" vertex="1" parent="1">
          <mxGeometry x="1110" y="50" width="40" height="20" as="geometry" />
        </mxCell>
        <mxCell id="YNnPDIzdrcRX6Q2PE1MY-96" value="" style="sketch=0;outlineConnect=0;fontColor=#232F3E;gradientColor=none;fillColor=#ED7100;strokeColor=none;dashed=0;verticalLabelPosition=bottom;verticalAlign=top;align=center;html=1;fontSize=12;fontStyle=0;aspect=fixed;pointerEvents=1;shape=mxgraph.aws4.container_registry_image;" vertex="1" parent="1">
          <mxGeometry x="930" y="48" width="24" height="24" as="geometry" />
        </mxCell>
        <mxCell id="YNnPDIzdrcRX6Q2PE1MY-97" value="Volver" style="labelPosition=center;verticalLabelPosition=middle;align=center;html=1;shape=mxgraph.basic.button;dx=4.88;whiteSpace=wrap;fontSize=10;" vertex="1" parent="1">
          <mxGeometry x="1070" y="50" width="40" height="20" as="geometry" />
        </mxCell>
        <mxCell id="YNnPDIzdrcRX6Q2PE1MY-100" value="" style="html=1;verticalLabelPosition=bottom;align=center;labelBackgroundColor=#ffffff;verticalAlign=top;strokeWidth=2;strokeColor=#0080F0;shadow=0;dashed=0;shape=mxgraph.ios7.icons.video_conversation;" vertex="1" parent="1">
          <mxGeometry x="956" y="313" width="30" height="15" as="geometry" />
        </mxCell>
        <mxCell id="YNnPDIzdrcRX6Q2PE1MY-101" value="" style="sketch=0;outlineConnect=0;fontColor=#232F3E;gradientColor=none;fillColor=#ED7100;strokeColor=none;dashed=0;verticalLabelPosition=bottom;verticalAlign=top;align=center;html=1;fontSize=12;fontStyle=0;aspect=fixed;pointerEvents=1;shape=mxgraph.aws4.container_registry_image;" vertex="1" parent="1">
          <mxGeometry x="1030" y="307" width="24" height="24" as="geometry" />
        </mxCell>
        <mxCell id="YNnPDIzdrcRX6Q2PE1MY-102" value="" style="sketch=0;pointerEvents=1;shadow=0;dashed=0;html=1;strokeColor=none;fillColor=#505050;labelPosition=center;verticalLabelPosition=bottom;verticalAlign=top;outlineConnect=0;align=center;shape=mxgraph.office.concepts.sound_file;" vertex="1" parent="1">
          <mxGeometry x="1102" y="296" width="40" height="50" as="geometry" />
        </mxCell>
        <mxCell id="YNnPDIzdrcRX6Q2PE1MY-105" value="Nombre" style="strokeWidth=1;html=1;shadow=0;dashed=0;shape=mxgraph.android.textfield;align=center;strokeColor=#4D4D4D;pointerEvents=1" vertex="1" parent="1">
          <mxGeometry x="972" y="105" width="140" height="30" as="geometry" />
        </mxCell>
        <mxCell id="YNnPDIzdrcRX6Q2PE1MY-106" value="DescripciÃ³n" style="strokeWidth=1;html=1;shadow=0;dashed=0;shape=mxgraph.android.textfield;align=center;strokeColor=#4D4D4D;pointerEvents=1" vertex="1" parent="1">
          <mxGeometry x="972" y="140" width="140" height="30" as="geometry" />
        </mxCell>
        <mxCell id="YNnPDIzdrcRX6Q2PE1MY-107" value="Repeticiones" style="strokeWidth=1;html=1;shadow=0;dashed=0;shape=mxgraph.android.textfield;align=center;strokeColor=#4D4D4D;pointerEvents=1" vertex="1" parent="1">
          <mxGeometry x="972" y="185" width="140" height="30" as="geometry" />
        </mxCell>
        <mxCell id="YNnPDIzdrcRX6Q2PE1MY-108" value="Series" style="strokeWidth=1;html=1;shadow=0;dashed=0;shape=mxgraph.android.textfield;align=center;strokeColor=#4D4D4D;pointerEvents=1" vertex="1" parent="1">
          <mxGeometry x="972" y="224" width="140" height="30" as="geometry" />
        </mxCell>
        <mxCell id="YNnPDIzdrcRX6Q2PE1MY-109" value="" style="sketch=0;outlineConnect=0;fontColor=#232F3E;gradientColor=none;fillColor=#ED7100;strokeColor=none;dashed=0;verticalLabelPosition=bottom;verticalAlign=top;align=center;html=1;fontSize=12;fontStyle=0;aspect=fixed;pointerEvents=1;shape=mxgraph.aws4.container_registry_image;" vertex="1" parent="1">
          <mxGeometry x="940" y="111" width="24" height="24" as="geometry" />
        </mxCell>
        <mxCell id="YNnPDIzdrcRX6Q2PE1MY-110" value="" style="sketch=0;outlineConnect=0;fontColor=#232F3E;gradientColor=none;fillColor=#ED7100;strokeColor=none;dashed=0;verticalLabelPosition=bottom;verticalAlign=top;align=center;html=1;fontSize=12;fontStyle=0;aspect=fixed;pointerEvents=1;shape=mxgraph.aws4.container_registry_image;" vertex="1" parent="1">
          <mxGeometry x="682" y="110" width="24" height="24" as="geometry" />
        </mxCell>
      </root>
    </mxGraphModel>
  </diagram>
</mxfile>
